<?xml version="1.0" encoding="utf-8"?>
<!-- Generator: Adobe Illustrator 26.0.1, SVG Export Plug-In . SVG Version: 6.00 Build 0)  -->
<svg version="1.1" id="Camada_3" xmlns="http://www.w3.org/2000/svg" xmlns:xlink="http://www.w3.org/1999/xlink" x="0px" y="0px"
	 viewBox="0 0 601.2 118.4" style="enable-background:new 0 0 601.2 118.4;" xml:space="preserve">
<style type="text/css">
	.st0{fill:#FFFFFF;}
	.st1{fill:#68BBBF;}
	.st2{fill:#0F75AE;}
	.st3{fill:#0B4A99;}
	.st4{fill:#71BACF;}
	.st5{fill:#057EBC;}
	.st6{fill:#094B75;}
	.st7{fill:#516F74;}
</style>
<g>
	<polygon class="st0" points="74.8,59.4 74.8,59.4 74.8,59.4 	"/>
	<path class="st1" d="M98.1,21c-1.8-8.4-4.9-14.8-7.3-18.8c0.7,7,1.6,21.9-2.7,36.7c0,0-3.6,12.4-10.1,18.1
		c-1.1,0.9-2.2,1.8-3.2,2.5C95.4,52.8,98,21.2,98.1,21z"/>
	<path class="st2" d="M36.1,59.4c8,12.4,15.6,16,18.4,16.9c0.7,0.2,1.4,0.2,2.1,0c2.7-0.9,10.4-4.5,18.4-16.9c-1.2,0.8-2,1.3-2,1.3
		c-0.5,0.3-1.4,0.8-2.6,1.4c-0.8,0.4-4.1,1.9-8.7,2.5c-1.3,0.2-2.3,0.4-3.6,0.4c-0.7,0-1.1,0-2.4,0c-1.2,0-1.6,0-2.3,0
		c-1.4,0-2.4-0.2-3.8-0.4c-4.6-0.6-7.9-2.1-8.7-2.5c-1.2-0.6-2.1-1.1-2.6-1.4c0,0-2.8-1.7-5.2-3.8c-6.5-5.7-10.1-18.1-10.1-18.1
		c-4.3-14.7-3.4-29.7-2.7-36.7c-2.4,4.2-5.7,11-7.5,19.8c-0.1,0.8-0.3,1.7-0.5,2.8C12.1,24.7,15.5,52.8,36.1,59.4z"/>
	<path class="st3" d="M98.1,21c0,0.3-2.7,31.8-23.2,38.4c0,0,0,0,0,0c-8,12.4-15.6,16-18.4,16.9c-0.7,0.2-1.4,0.2-2.1,0
		c-2.7-0.9-10.4-4.5-18.4-16.9c-20.6-6.6-23.9-34.7-23.9-34.7C10.7,33,9,49.8,19.6,64.9c10.3,14.6,25.7,18.8,32.6,20
		c2.1,0.4,4.3,0.4,6.4,0c7-1.2,22.3-5.4,32.6-20c12-17,8.3-36.3,7-42.9C98.2,21.6,98.1,21.3,98.1,21z"/>
</g>
<path class="st1" d="M36.1,59.4c-19.8-5.6-23.9-34.6-23.9-34.6s1.7-12.4,8-22.6c-0.8,7.3-0.8,13.5-0.4,18c0.8,9.7,1.7,14.6,4,21.3
	c1.7,4.6,4.4,9.9,6,11.9C32,56.2,32.9,57.3,36.1,59.4z"/>
<path class="st4" d="M26.2,15.3c0,0,5.1,26.7,29.2,26.7c12.9,0,26.8-11.9,27.9-26.7c2.6,17-2.7,32.5-14,39.9
	c-6.6,4.3-13.9,4.2-13.9,4.2c-10,0.1-16.9-6-18.9-7.7C22.9,39.6,26.2,15.3,26.2,15.3z"/>
<path class="st4" d="M44.8,90.9c-41.6-10.4-38.1-58-38.1-58s-12.6,28.7,4.4,50.7C30,101.9,44.8,90.9,44.8,90.9z"/>
<path class="st4" d="M65.1,90.4c42.8-7.7,36.9-59.1,36.9-59.1s13.8,29.8-3.2,51.8C80,101.3,65.1,90.4,65.1,90.4z"/>
<g>
	<path class="st5" d="M185.9,81.7h-16.1l-4.7-14.9h-23.4l-4.6,14.9h-16l23.9-67h17.6L185.9,81.7z M161.7,55.2l-7.1-22.5
		c-0.5-1.7-0.9-3.7-1.1-6h-0.4c-0.2,2-0.5,3.9-1.1,5.8l-7.1,22.7H161.7z"/>
	<path class="st6" d="M241.3,79.4c-4.8,2.4-11.1,3.6-18.8,3.6c-10.1,0-18-3-23.8-9.1c-5.8-6-8.7-14.1-8.7-24.2
		c0-10.7,3.2-19.4,9.7-26.1c6.5-6.7,14.9-10,25.3-10c6.4,0,11.8,0.8,16.2,2.5v14.5c-4.4-2.7-9.4-4-15-4c-6.2,0-11.2,2-14.9,5.9
		c-3.8,4-5.7,9.3-5.7,16.1c0,6.5,1.8,11.6,5.4,15.5c3.6,3.8,8.4,5.8,14.4,5.8c5.8,0,11.1-1.4,15.9-4.3V79.4z M214.6,102.8v-6.5
		c1.1,0.2,2.2,0.3,3.3,0.3c3.8,0,5.6-1.1,5.6-3.4c0-2.1-1.7-3.1-5.1-3.1c-0.4,0-1,0-1.7,0.1v-8.5h7.9v3.8c5.7,0.2,8.6,2.8,8.6,7.8
		c0,6.5-4.9,9.7-14.6,9.7C217.2,103,215.9,103,214.6,102.8z"/>
	<path class="st6" d="M280.6,82.9c-9.4,0-17.1-3.1-23-9.4c-5.9-6.2-8.9-14.4-8.9-24.4c0-10.6,3-19.2,9-25.7c6-6.5,14-9.8,23.9-9.8
		c9.4,0,17,3.1,22.8,9.4c5.8,6.3,8.7,14.5,8.7,24.8c0,10.5-3,19-9,25.5C298.1,79.7,290.3,82.9,280.6,82.9z M281.3,26.6
		c-5.2,0-9.3,2-12.4,6c-3.1,4-4.6,9.2-4.6,15.8c0,6.6,1.5,11.9,4.6,15.8c3.1,3.9,7.1,5.8,12,5.8c5.1,0,9.2-1.9,12.1-5.6
		c3-3.8,4.5-9,4.5-15.6c0-7-1.5-12.4-4.4-16.2C290.3,28.5,286.3,26.6,281.3,26.6z"/>
	<path class="st5" d="M324.1,81.7v-67H348c7.3,0,13,1.4,16.9,4.1c3.9,2.7,5.9,6.6,5.9,11.6c0,3.6-1.2,6.8-3.6,9.5
		c-2.4,2.7-5.5,4.6-9.2,5.7v0.2c4.7,0.6,8.4,2.4,11.2,5.3s4.2,6.5,4.2,10.7c0,6.1-2.2,11-6.5,14.6c-4.3,3.6-10.2,5.4-17.6,5.4H324.1
		z M338.9,25.8v15.9h6.5c3.1,0,5.5-0.8,7.2-2.3c1.8-1.5,2.6-3.6,2.6-6.2c0-4.9-3.6-7.4-10.8-7.4H338.9z M338.9,52.9v17.7h8
		c3.4,0,6.1-0.8,8-2.4c1.9-1.6,2.9-3.8,2.9-6.6c0-2.7-1-4.8-2.9-6.3c-1.9-1.5-4.6-2.3-8-2.3H338.9z"/>
	<path class="st6" d="M442.2,81.7H426l-4.7-14.9H398l-4.6,14.9h-16l23.9-67h17.6L442.2,81.7z M418,55.2l-7.1-22.5
		c-0.5-1.7-0.9-3.7-1.1-6h-0.4c-0.2,2-0.5,3.9-1.1,5.8l-7.1,22.7H418z"/>
	<path class="st6" d="M525.4,81.7h-14.6V41.6c0-4.3,0.2-9.1,0.6-14.4h-0.4c-0.8,4.1-1.5,7.1-2.1,8.9l-15.4,45.6h-12.1l-15.7-45.1
		c-0.4-1.2-1.1-4.3-2.1-9.4h-0.4c0.4,6.6,0.6,12.4,0.6,17.4v37.1h-13.3v-67h21.7l13.4,39.7c1.1,3.2,1.8,6.4,2.3,9.6h0.3
		c0.8-3.7,1.7-6.9,2.6-9.7l13.4-39.6h21.1V81.7z"/>
	<path class="st6" d="M598.2,81.7h-16.1l-4.7-14.9H554l-4.6,14.9h-16l23.9-67h17.6L598.2,81.7z M574,55.2l-7.1-22.5
		c-0.5-1.7-0.9-3.7-1.1-6h-0.4c-0.2,2-0.5,3.9-1.1,5.8l-7.1,22.7H574z"/>
</g>
<g>
	<path class="st7" d="M375.9,87.7c0,0.2,0,0.3,0,0.4s-0.1,0.2-0.1,0.3c0,0.1-0.1,0.1-0.2,0.2c-0.1,0-0.1,0.1-0.2,0.1h-6.2v21
		c0,0.1,0,0.1,0,0.2c0,0.1-0.1,0.1-0.2,0.1c-0.1,0-0.2,0.1-0.3,0.1c-0.1,0-0.3,0-0.5,0c-0.2,0-0.3,0-0.5,0c-0.1,0-0.2-0.1-0.3-0.1
		c-0.1,0-0.1-0.1-0.2-0.1c0-0.1,0-0.1,0-0.2v-21H361c-0.1,0-0.2,0-0.2-0.1c-0.1,0-0.1-0.1-0.2-0.2c0-0.1-0.1-0.2-0.1-0.3
		c0-0.1,0-0.3,0-0.4c0-0.2,0-0.3,0-0.4c0-0.1,0.1-0.2,0.1-0.3c0-0.1,0.1-0.1,0.2-0.2c0.1,0,0.1-0.1,0.2-0.1h14.4
		c0.1,0,0.1,0,0.2,0.1c0.1,0,0.1,0.1,0.2,0.2c0,0.1,0.1,0.2,0.1,0.3S375.9,87.5,375.9,87.7z"/>
	<path class="st7" d="M388.3,109.6c0,0.1,0,0.1,0,0.2c0,0.1-0.1,0.1-0.2,0.1c-0.1,0-0.2,0.1-0.3,0.1c-0.1,0-0.3,0-0.4,0
		c-0.2,0-0.3,0-0.5,0c-0.1,0-0.2-0.1-0.3-0.1c-0.1,0-0.1-0.1-0.1-0.1c0-0.1,0-0.1,0-0.2v-2.3c-0.8,1-1.7,1.8-2.4,2.3
		c-0.8,0.5-1.6,0.7-2.4,0.7c-1,0-1.8-0.2-2.4-0.5c-0.7-0.4-1.2-0.8-1.6-1.5c-0.4-0.6-0.7-1.3-0.9-2.2s-0.3-1.8-0.3-3v-9.8
		c0-0.1,0-0.1,0-0.2s0.1-0.1,0.2-0.2c0.1,0,0.2-0.1,0.3-0.1s0.3,0,0.5,0c0.2,0,0.4,0,0.5,0s0.2,0,0.3,0.1c0.1,0,0.1,0.1,0.2,0.2
		s0,0.1,0,0.2v9.6c0,1,0.1,1.8,0.2,2.5c0.1,0.6,0.3,1.2,0.6,1.6c0.3,0.4,0.6,0.8,1.1,1s0.9,0.4,1.5,0.4c0.7,0,1.5-0.3,2.2-0.9
		c0.7-0.6,1.5-1.5,2.3-2.6V93.3c0-0.1,0-0.1,0-0.2s0.1-0.1,0.2-0.2c0.1,0,0.2-0.1,0.3-0.1s0.3,0,0.5,0c0.2,0,0.3,0,0.5,0
		s0.2,0,0.3,0.1c0.1,0,0.1,0.1,0.2,0.2s0,0.1,0,0.2V109.6z"/>
	<path class="st7" d="M406.4,101.2c0,1.4-0.1,2.6-0.4,3.8s-0.7,2.1-1.2,2.8c-0.5,0.8-1.2,1.4-2,1.8c-0.8,0.4-1.7,0.6-2.7,0.6
		c-0.4,0-0.9-0.1-1.2-0.2c-0.4-0.1-0.8-0.3-1.1-0.5s-0.7-0.5-1.1-0.9c-0.4-0.3-0.8-0.8-1.2-1.3v2.1c0,0.1,0,0.2,0,0.2
		c0,0.1-0.1,0.1-0.2,0.1c-0.1,0-0.2,0.1-0.3,0.1c-0.1,0-0.2,0-0.4,0c-0.2,0-0.3,0-0.4,0c-0.1,0-0.2,0-0.3-0.1
		c-0.1,0-0.1-0.1-0.1-0.1c0-0.1,0-0.1,0-0.2V85.3c0-0.1,0-0.1,0-0.2c0-0.1,0.1-0.1,0.2-0.2s0.2-0.1,0.3-0.1c0.1,0,0.3,0,0.5,0
		c0.2,0,0.4,0,0.5,0c0.1,0,0.2,0,0.3,0.1c0.1,0,0.1,0.1,0.2,0.2c0,0.1,0,0.1,0,0.2v10.2c0.5-0.5,0.9-1,1.3-1.4
		c0.4-0.4,0.8-0.7,1.2-0.9c0.4-0.2,0.8-0.4,1.2-0.5c0.4-0.1,0.8-0.1,1.2-0.1c1,0,1.9,0.2,2.7,0.7c0.7,0.5,1.3,1.1,1.8,1.9
		c0.5,0.8,0.8,1.7,1,2.7C406.3,99,406.4,100.1,406.4,101.2z M404.4,101.6c0-0.9-0.1-1.8-0.2-2.6c-0.1-0.9-0.3-1.6-0.7-2.3
		c-0.3-0.7-0.7-1.2-1.2-1.6s-1.2-0.6-1.9-0.6c-0.4,0-0.7,0.1-1.1,0.2c-0.4,0.1-0.7,0.3-1.1,0.6s-0.8,0.6-1.2,1.1s-0.8,1-1.3,1.6v7.1
		c0.8,1.1,1.6,1.9,2.3,2.5c0.7,0.6,1.5,0.9,2.3,0.9c0.7,0,1.4-0.2,1.9-0.6c0.5-0.4,1-0.9,1.3-1.6c0.3-0.6,0.6-1.4,0.7-2.2
		C404.3,103.2,404.4,102.4,404.4,101.6z"/>
	<path class="st7" d="M423.7,101.3c0,1.3-0.1,2.5-0.4,3.6c-0.3,1.1-0.7,2-1.3,2.8c-0.6,0.8-1.3,1.4-2.2,1.9
		c-0.9,0.5-1.9,0.7-3.1,0.7c-1.1,0-2.1-0.2-3-0.6c-0.9-0.4-1.6-1-2.1-1.7c-0.6-0.8-1-1.7-1.3-2.7s-0.4-2.3-0.4-3.6
		c0-1.3,0.1-2.5,0.4-3.6c0.3-1.1,0.7-2,1.3-2.8s1.3-1.4,2.2-1.9c0.9-0.4,1.9-0.7,3.1-0.7c1.1,0,2.1,0.2,3,0.6c0.9,0.4,1.6,1,2.1,1.7
		c0.6,0.8,1,1.7,1.3,2.7S423.7,99.9,423.7,101.3z M421.7,101.5c0-0.9-0.1-1.8-0.2-2.6c-0.2-0.8-0.4-1.6-0.8-2.2
		c-0.4-0.6-0.9-1.2-1.5-1.5c-0.6-0.4-1.4-0.6-2.4-0.6c-0.9,0-1.6,0.2-2.2,0.5c-0.6,0.3-1.1,0.8-1.5,1.4c-0.4,0.6-0.7,1.3-0.9,2.2
		c-0.2,0.8-0.3,1.7-0.3,2.7c0,0.9,0.1,1.8,0.2,2.7c0.2,0.8,0.4,1.6,0.8,2.2c0.4,0.6,0.9,1.1,1.5,1.5c0.6,0.4,1.4,0.6,2.4,0.6
		c0.9,0,1.6-0.2,2.2-0.5c0.6-0.3,1.1-0.8,1.5-1.4s0.7-1.3,0.9-2.2C421.6,103.4,421.7,102.5,421.7,101.5z"/>
	<path class="st7" d="M436.5,105.3c0,0.8-0.1,1.5-0.4,2.1c-0.3,0.6-0.6,1.1-1.1,1.6c-0.5,0.4-1,0.8-1.7,1s-1.4,0.3-2.2,0.3
		c-0.5,0-1,0-1.4-0.1c-0.4-0.1-0.9-0.2-1.2-0.3s-0.7-0.3-0.9-0.4c-0.3-0.2-0.4-0.3-0.6-0.4c-0.1-0.1-0.2-0.3-0.3-0.5
		c-0.1-0.2-0.1-0.4-0.1-0.7c0-0.2,0-0.3,0-0.4s0-0.2,0.1-0.3c0-0.1,0.1-0.1,0.1-0.2c0.1,0,0.1-0.1,0.2-0.1c0.1,0,0.3,0.1,0.5,0.3
		c0.2,0.2,0.5,0.4,0.8,0.5s0.7,0.4,1.2,0.5c0.5,0.2,1,0.3,1.6,0.3c0.5,0,0.9-0.1,1.3-0.2c0.4-0.1,0.8-0.3,1.1-0.5
		c0.3-0.2,0.5-0.5,0.7-0.9s0.2-0.8,0.2-1.3s-0.1-0.9-0.3-1.3c-0.2-0.3-0.5-0.7-0.8-0.9c-0.3-0.3-0.7-0.5-1.2-0.7
		c-0.4-0.2-0.9-0.4-1.4-0.6c-0.5-0.2-0.9-0.4-1.4-0.7s-0.8-0.6-1.2-0.9c-0.3-0.4-0.6-0.8-0.8-1.3c-0.2-0.5-0.3-1.1-0.3-1.8
		c0-0.6,0.1-1.1,0.3-1.7c0.2-0.5,0.5-1,0.9-1.5c0.4-0.4,0.9-0.8,1.5-1c0.6-0.3,1.4-0.4,2.2-0.4c0.4,0,0.7,0,1.1,0.1
		c0.4,0.1,0.7,0.2,1,0.3c0.3,0.1,0.5,0.2,0.8,0.4c0.2,0.1,0.4,0.2,0.5,0.3c0.1,0.1,0.2,0.2,0.2,0.2s0.1,0.1,0.1,0.2
		c0,0.1,0,0.2,0,0.3c0,0.1,0,0.2,0,0.4s0,0.3,0,0.4c0,0.1,0,0.2-0.1,0.3c0,0.1-0.1,0.1-0.1,0.2c0,0-0.1,0.1-0.2,0.1
		c-0.1,0-0.2-0.1-0.4-0.2c-0.2-0.1-0.4-0.3-0.7-0.4c-0.3-0.2-0.6-0.3-1-0.4s-0.8-0.2-1.3-0.2c-0.5,0-0.9,0.1-1.3,0.2
		c-0.4,0.1-0.7,0.3-0.9,0.6c-0.2,0.2-0.4,0.5-0.6,0.8c-0.1,0.3-0.2,0.7-0.2,1.1c0,0.5,0.1,1,0.3,1.3c0.2,0.4,0.5,0.7,0.9,0.9
		c0.4,0.3,0.8,0.5,1.2,0.7s0.9,0.4,1.4,0.6c0.5,0.2,0.9,0.4,1.4,0.7c0.4,0.2,0.9,0.5,1.2,0.9c0.4,0.3,0.6,0.8,0.9,1.3
		C436.4,104,436.5,104.6,436.5,105.3z"/>
	<path class="st7" d="M459.9,109.6c0,0.1,0,0.2,0,0.2c0,0.1-0.1,0.1-0.1,0.1s-0.2,0.1-0.3,0.1c-0.1,0-0.2,0-0.4,0
		c-0.2,0-0.3,0-0.4,0c-0.1,0-0.2,0-0.3-0.1c-0.1,0-0.1-0.1-0.2-0.1c0-0.1-0.1-0.1-0.1-0.2v-2.3c-0.8,0.9-1.6,1.7-2.4,2.2
		c-0.8,0.5-1.7,0.8-2.7,0.8c-1,0-1.9-0.2-2.7-0.7s-1.3-1.1-1.8-1.9c-0.5-0.8-0.8-1.7-1-2.7c-0.2-1-0.3-2.2-0.3-3.3
		c0-1.4,0.1-2.6,0.4-3.7c0.3-1.1,0.7-2.1,1.2-2.8c0.5-0.8,1.2-1.4,1.9-1.8c0.8-0.4,1.7-0.6,2.7-0.6c0.9,0,1.7,0.2,2.4,0.7
		c0.7,0.4,1.4,1.1,2.2,1.9v-9.8c0-0.1,0-0.1,0-0.2c0-0.1,0.1-0.1,0.2-0.1c0.1,0,0.2-0.1,0.3-0.1c0.1,0,0.3,0,0.5,0
		c0.2,0,0.4,0,0.5,0c0.1,0,0.2,0.1,0.3,0.1c0.1,0,0.1,0.1,0.2,0.1c0,0.1,0,0.1,0,0.2V109.6z M458,97.8c-0.8-1.1-1.6-1.9-2.3-2.5
		c-0.7-0.6-1.5-0.9-2.3-0.9c-0.7,0-1.4,0.2-1.9,0.6s-1,0.9-1.3,1.6c-0.3,0.6-0.6,1.4-0.7,2.2c-0.2,0.8-0.2,1.6-0.2,2.5
		c0,0.9,0.1,1.8,0.2,2.6s0.3,1.6,0.7,2.3s0.7,1.2,1.2,1.6c0.5,0.4,1.2,0.6,1.9,0.6c0.4,0,0.8-0.1,1.1-0.2c0.4-0.1,0.7-0.3,1.1-0.6
		c0.4-0.3,0.8-0.6,1.2-1.1c0.4-0.4,0.9-1,1.3-1.6V97.8z"/>
	<path class="st7" d="M477.2,100.6c0,0.4-0.1,0.7-0.3,0.9c-0.2,0.2-0.4,0.2-0.6,0.2h-9.9c0,1,0.1,1.9,0.3,2.7
		c0.2,0.8,0.5,1.5,0.9,2.1c0.4,0.6,0.9,1,1.6,1.3c0.7,0.3,1.5,0.5,2.4,0.5c0.7,0,1.3-0.1,1.8-0.2s1-0.3,1.4-0.4
		c0.4-0.2,0.7-0.3,1-0.4c0.3-0.1,0.4-0.2,0.5-0.2c0.1,0,0.1,0,0.2,0.1s0.1,0.1,0.1,0.2c0,0.1,0.1,0.2,0.1,0.3s0,0.3,0,0.4
		c0,0.1,0,0.2,0,0.2c0,0.1,0,0.2,0,0.2c0,0.1,0,0.1-0.1,0.2c0,0.1-0.1,0.1-0.1,0.2c-0.1,0.1-0.2,0.2-0.5,0.3
		c-0.3,0.1-0.6,0.3-1.1,0.4c-0.4,0.2-1,0.3-1.6,0.4c-0.6,0.1-1.2,0.2-1.9,0.2c-1.1,0-2.1-0.2-3-0.6c-0.9-0.4-1.6-0.9-2.2-1.7
		c-0.6-0.7-1-1.7-1.3-2.7c-0.3-1.1-0.5-2.4-0.5-3.8c0-1.4,0.2-2.6,0.5-3.7c0.3-1.1,0.8-2,1.4-2.8c0.6-0.8,1.3-1.3,2.1-1.7
		c0.8-0.4,1.8-0.6,2.8-0.6c1.1,0,2,0.2,2.8,0.6c0.8,0.4,1.4,1,1.9,1.6c0.5,0.7,0.9,1.5,1.1,2.4c0.2,0.9,0.3,1.9,0.3,2.9V100.6z
		 M475.2,100c0-1.7-0.3-3.1-1.1-4c-0.7-1-1.8-1.5-3.2-1.5c-0.7,0-1.4,0.2-1.9,0.5c-0.6,0.3-1,0.7-1.4,1.2c-0.4,0.5-0.7,1.1-0.9,1.8
		c-0.2,0.7-0.3,1.4-0.4,2.1H475.2z"/>
	<path class="st7" d="M504.2,109.2c0.1,0.2,0.1,0.3,0.1,0.4s0,0.2-0.1,0.3c-0.1,0.1-0.2,0.1-0.3,0.1c-0.1,0-0.3,0-0.6,0
		c-0.2,0-0.4,0-0.5,0c-0.1,0-0.2,0-0.3-0.1c-0.1,0-0.1-0.1-0.2-0.1c0-0.1-0.1-0.1-0.1-0.2l-2-6.2h-9.1l-1.9,6.2
		c0,0.1-0.1,0.2-0.1,0.2c0,0.1-0.1,0.1-0.2,0.2s-0.2,0.1-0.3,0.1c-0.1,0-0.3,0-0.5,0c-0.2,0-0.4,0-0.6,0c-0.1,0-0.3-0.1-0.3-0.1
		c-0.1-0.1-0.1-0.1-0.1-0.3c0-0.1,0-0.3,0.1-0.4l7.3-22.2c0-0.1,0.1-0.2,0.1-0.2c0.1-0.1,0.1-0.1,0.2-0.2c0.1,0,0.2-0.1,0.4-0.1
		s0.3,0,0.5,0c0.2,0,0.4,0,0.5,0s0.3,0,0.4,0.1c0.1,0,0.2,0.1,0.2,0.2c0.1,0.1,0.1,0.1,0.1,0.2L504.2,109.2z M495.6,89L495.6,89
		l-3.9,12.5h7.9L495.6,89z"/>
	<path class="st7" d="M517.8,107.2c0,0.1,0,0.3,0,0.4c0,0.1,0,0.2,0,0.3s-0.1,0.2-0.1,0.2c0,0.1-0.1,0.2-0.3,0.3
		c-0.1,0.2-0.4,0.4-0.7,0.6c-0.3,0.3-0.8,0.5-1.3,0.7c-0.5,0.2-1.2,0.4-1.8,0.5l0.4,1.1c0.2,0.6,0.4,1.1,0.5,1.4
		c0.1,0.4,0.2,0.7,0.2,1c0,0.4-0.1,0.8-0.2,1.1c-0.1,0.3-0.3,0.6-0.6,0.9s-0.6,0.4-0.9,0.6c-0.4,0.1-0.8,0.2-1.3,0.2
		c-0.3,0-0.6,0-0.9-0.1c-0.3,0-0.6-0.1-0.8-0.1c-0.2-0.1-0.4-0.1-0.5-0.1c-0.1,0-0.1-0.1-0.2-0.1c0-0.1-0.1-0.1-0.1-0.2s0-0.2,0-0.3
		c0-0.3,0-0.5,0.1-0.6c0.1-0.1,0.2-0.1,0.3-0.1h2.1c0.4,0,0.7-0.1,0.9-0.3c0.2-0.2,0.3-0.4,0.3-0.8c0-0.2,0-0.4-0.1-0.6
		s-0.2-0.5-0.3-0.8l-0.8-2.1c-1.1-0.2-2-0.7-2.8-1.4c-0.7-0.7-1.3-1.7-1.7-2.9c-0.4-1.2-0.6-2.6-0.6-4.3c0-1.6,0.2-2.9,0.5-4.1
		c0.3-1.1,0.8-2.1,1.4-2.8c0.6-0.7,1.3-1.3,2.1-1.6c0.8-0.3,1.6-0.5,2.5-0.5c0.5,0,0.9,0.1,1.4,0.2s0.8,0.2,1.2,0.4
		c0.4,0.2,0.7,0.4,1,0.6c0.3,0.2,0.5,0.4,0.6,0.5s0.2,0.3,0.3,0.3s0.1,0.2,0.1,0.3c0,0.1,0,0.2,0.1,0.3c0,0.1,0,0.2,0,0.4
		c0,0.3,0,0.6-0.1,0.7c-0.1,0.1-0.2,0.2-0.3,0.2c-0.1,0-0.3-0.1-0.6-0.3c-0.2-0.2-0.5-0.5-0.8-0.7c-0.3-0.3-0.8-0.5-1.2-0.7
		c-0.5-0.2-1.1-0.3-1.7-0.3c-1.4,0-2.5,0.6-3.2,1.8c-0.8,1.2-1.1,2.9-1.1,5.2c0,1.1,0.1,2.1,0.3,3c0.2,0.9,0.5,1.6,0.9,2.1
		s0.8,1,1.4,1.3c0.5,0.3,1.2,0.4,1.8,0.4c0.6,0,1.2-0.1,1.7-0.3s0.9-0.5,1.3-0.8c0.4-0.3,0.7-0.5,0.9-0.8c0.2-0.2,0.4-0.3,0.5-0.3
		c0.1,0,0.1,0,0.2,0.1c0,0,0.1,0.1,0.1,0.2c0,0.1,0.1,0.2,0.1,0.3C517.8,106.9,517.8,107,517.8,107.2z"/>
	<path class="st7" d="M534.2,101.3c0,1.3-0.1,2.5-0.4,3.6c-0.3,1.1-0.7,2-1.3,2.8c-0.6,0.8-1.3,1.4-2.2,1.9
		c-0.9,0.5-1.9,0.7-3.1,0.7c-1.1,0-2.1-0.2-3-0.6c-0.9-0.4-1.6-1-2.1-1.7c-0.6-0.8-1-1.7-1.3-2.7s-0.4-2.3-0.4-3.6
		c0-1.3,0.1-2.5,0.4-3.6c0.3-1.1,0.7-2,1.3-2.8s1.3-1.4,2.2-1.9c0.9-0.4,1.9-0.7,3.1-0.7c1.1,0,2.1,0.2,3,0.6c0.9,0.4,1.6,1,2.1,1.7
		c0.6,0.8,1,1.7,1.3,2.7S534.2,99.9,534.2,101.3z M532.2,101.5c0-0.9-0.1-1.8-0.2-2.6c-0.2-0.8-0.4-1.6-0.8-2.2
		c-0.4-0.6-0.9-1.2-1.5-1.5c-0.6-0.4-1.4-0.6-2.4-0.6c-0.9,0-1.6,0.2-2.2,0.5c-0.6,0.3-1.1,0.8-1.5,1.4c-0.4,0.6-0.7,1.3-0.9,2.2
		c-0.2,0.8-0.3,1.7-0.3,2.7c0,0.9,0.1,1.8,0.2,2.7c0.2,0.8,0.4,1.6,0.8,2.2c0.4,0.6,0.9,1.1,1.5,1.5c0.6,0.4,1.4,0.6,2.4,0.6
		c0.9,0,1.6-0.2,2.2-0.5c0.6-0.3,1.1-0.8,1.5-1.4s0.7-1.3,0.9-2.2C532.1,103.4,532.2,102.5,532.2,101.5z"/>
</g>
</svg>
